<?xml version="1.0" encoding="UTF-8"?>
<svg xmlns="http://www.w3.org/2000/svg" version="1.1" viewBox="0 0 513.809 195.375">
  <defs>
    <style>
      .cls-1 {
        fill: #1d1d1b;
      }
    </style>
  </defs>
  <g>
    <g id="Calque_1">
      <g>
        <path class="cls-1" d="M253.086,3.135v10.485h-10.367v81.764h-10.84V13.62h-10.367V3.135h31.575Z"></path>
        <path class="cls-1" d="M283.247,34.827c-2.357-1.414-4.594-2.004-6.599-2.004-4.004,0-7.305,2.121-10.013,6.127v56.434h-10.487V23.399h7.187l2.004,6.007c3.062-4.594,7.07-6.95,12.134-6.95,3.182,0,6.244.943,8.72,3.062l-2.946,9.308Z"></path>
        <path class="cls-1" d="M290.552,30.467c3.417-5.066,9.897-8.011,16.731-8.011,11.428,0,17.082,8.129,17.082,19.558v53.37h-6.599l-1.883-4.005c-3.536,2.945-8.25,4.948-13.198,4.948-7.892,0-15.196-4.948-15.196-18.615,0-10.604,4.358-17.202,14.845-25.095,3.417-2.474,7.656-5.301,12.134-8.13v-2.237c0-6.009-2.827-10.132-8.601-10.132-4.007,0-7.54,2.12-9.542,5.537l-5.774-7.187ZM314.469,82.307v-27.687c-2.827,1.767-4.948,3.18-6.95,4.711-7.424,5.774-9.545,10.84-9.545,16.849,0,7.305,3.066,10.25,7.779,10.25,3.298,0,6.125-1.531,8.717-4.123Z"></path>
        <path class="cls-1" d="M346.277,6.785c0,3.652-2.005,6.599-6.244,6.599-4.007,0-6.009-2.946-6.009-6.599,0-3.533,2.002-6.362,6.009-6.362,4.239,0,6.244,2.829,6.244,6.362ZM345.452,23.399v71.985h-10.487V23.399h10.487Z"></path>
        <path class="cls-1" d="M360.061,23.399v-12.606l10.132-4.242v16.849h12.015v8.836h-12.015v45.477c0,5.419,3.062,8.719,7.656,8.719,1.886,0,3.536-.59,5.303-1.886l2.827,8.955c-2.592,1.884-6.125,2.827-9.777,2.827-11.312,0-16.141-8.483-16.141-18.615v-45.477h-7.776v-8.836h7.776Z"></path>
        <path class="cls-1" d="M402.118,72.763v5.774c0,4.948,3.182,7.658,7.54,7.658,4.478,0,7.66-2.71,7.66-7.658v-4.595l9.542-2.474v7.423c0,10.838-7.776,17.437-17.553,17.437-9.661,0-17.321-6.599-17.321-17.437v-38.997c0-10.84,7.66-17.437,17.437-17.437,8.485,0,17.672,4.595,17.672,18.968,0,8.836-3.533,15.08-11.544,21.678-3.301,2.829-7.776,6.127-13.433,9.661ZM402.118,62.631c3.417-2.239,6.244-4.36,8.13-6.127,4.832-4.478,6.715-8.601,6.715-14.373,0-7.423-3.533-10.014-7.656-10.014-4.478,0-7.189,3.062-7.189,8.246v22.268Z"></path>
        <path class="cls-1" d="M472.926,23.399v71.985h-7.186l-1.77-4.005c-3.533,3.298-7.892,4.948-12.485,4.948-8.13,0-14.964-5.656-14.964-17.437V23.399h10.487v53.252c0,6.244,2.592,9.308,7.421,9.308,2.711,0,5.419-1.178,8.011-3.652V23.399h10.487Z"></path>
        <path class="cls-1" d="M510.863,34.827c-2.357-1.414-4.594-2.004-6.599-2.004-4.004,0-7.305,2.121-10.013,6.127v56.434h-10.487V23.399h7.189l2.002,6.007c3.062-4.594,7.07-6.95,12.134-6.95,3.182,0,6.244.943,8.72,3.062l-2.946,9.308Z"></path>
      </g>
      <g>
        <path class="cls-1" d="M229.678,114.517l9.962,50.708,10.533-50.708h7.512v63.935h-6.694v-41.236l-7.839,41.236h-6.942l-8.002-41.807v41.807h-6.696v-63.935h8.166Z"></path>
        <path class="cls-1" d="M289.606,167.021c0,7.513-5.552,12.085-12.409,12.085-6.944,0-12.414-4.571-12.414-12.085v-27.028c0-7.512,5.47-12.085,12.414-12.085,6.857,0,12.409,4.573,12.409,12.085v27.028ZM271.806,166.612c0,3.43,2.289,5.307,5.392,5.307s5.306-1.877,5.306-5.307v-26.211c0-3.429-2.203-5.307-5.306-5.307s-5.392,1.879-5.392,5.307v26.211Z"></path>
        <path class="cls-1" d="M301.689,128.562l1.143,2.857c2.532-2.286,5.797-3.512,8.983-3.512,5.714,0,10.452,3.92,10.452,12.085v38.46h-7.269v-36.909c0-4.081-1.551-6.45-5.226-6.45-2.123,0-4,.899-5.797,2.613v40.746h-7.266v-49.89h4.98Z"></path>
        <path class="cls-1" d="M332.224,128.562v-8.738l7.023-2.94v11.678h8.329v6.123h-8.329v31.52c0,3.756,2.123,6.042,5.306,6.042,1.309,0,2.452-.409,3.674-1.306l1.96,6.204c-1.794,1.307-4.246,1.96-6.777,1.96-7.837,0-11.186-5.879-11.186-12.9v-31.52h-5.389v-6.123h5.389Z"></path>
        <path class="cls-1" d="M359.739,128.562l1.226,3.101c2.449-2.367,5.714-3.756,9.063-3.756,5.468,0,10.289,3.92,10.289,12.085v27.028c0,8.166-4.821,12.085-10.289,12.085-2.86,0-5.718-.98-8.003-2.857v16.168h-7.266v-63.854h4.98ZM362.025,137.952v31.11c1.797,1.879,3.674,2.857,5.96,2.857,3.512,0,5.063-2.367,5.063-6.45v-23.925c0-4.081-1.551-6.45-5.063-6.45-2.286,0-4.163.98-5.96,2.859Z"></path>
        <path class="cls-1" d="M394.032,162.775v4.002c0,3.429,2.206,5.307,5.226,5.307,3.103,0,5.309-1.879,5.309-5.307v-3.184l6.615-1.716v5.145c0,7.513-5.389,12.085-12.166,12.085-6.698,0-12.003-4.571-12.003-12.085v-27.028c0-7.512,5.306-12.085,12.083-12.085,5.88,0,12.249,3.184,12.249,13.146,0,6.125-2.449,10.452-8.003,15.025-2.286,1.96-5.389,4.246-9.309,6.696ZM394.032,155.753c2.369-1.551,4.329-3.022,5.635-4.248,3.349-3.101,4.654-5.96,4.654-9.962,0-5.143-2.449-6.94-5.306-6.94-3.103,0-4.983,2.123-4.983,5.716v15.434Z"></path>
        <path class="cls-1" d="M425.304,111.904v66.548h-7.266v-64.753l7.266-1.796Z"></path>
        <path class="cls-1" d="M440.082,111.904v66.548h-7.266v-64.753l7.266-1.796Z"></path>
        <path class="cls-1" d="M455.431,117.049c0,2.53-1.389,4.571-4.329,4.571-2.774,0-4.163-2.042-4.163-4.571,0-2.45,1.389-4.41,4.163-4.41,2.94,0,4.329,1.96,4.329,4.41ZM454.859,128.562v49.89h-7.266v-49.89h7.266Z"></path>
        <path class="cls-1" d="M468.982,162.775v4.002c0,3.429,2.206,5.307,5.226,5.307,3.103,0,5.309-1.879,5.309-5.307v-3.184l6.615-1.716v5.145c0,7.513-5.389,12.085-12.166,12.085-6.698,0-12.003-4.571-12.003-12.085v-27.028c0-7.512,5.306-12.085,12.083-12.085,5.88,0,12.249,3.184,12.249,13.146,0,6.125-2.449,10.452-8.003,15.025-2.286,1.96-5.389,4.246-9.309,6.696ZM468.982,155.753c2.369-1.551,4.329-3.022,5.635-4.248,3.349-3.101,4.654-5.96,4.654-9.962,0-5.143-2.449-6.94-5.306-6.94-3.103,0-4.983,2.123-4.983,5.716v15.434Z"></path>
        <path class="cls-1" d="M511.77,136.482c-1.635-.98-3.186-1.389-4.575-1.389-2.774,0-5.063,1.47-6.94,4.246v39.113h-7.266v-49.89h4.98l1.389,4.164c2.123-3.186,4.897-4.819,8.409-4.819,2.206,0,4.329.654,6.043,2.123l-2.04,6.452Z"></path>
      </g>
      <path class="cls-1" d="M196.48,51.861v140.555h-28.11v-112.444c-20.418,0-28.703,8.582-29.887,38.172l-.888,24.264c-1.183,28.703-8.876,52.967-39.355,52.967s-38.171-24.264-39.355-52.967l-.888-24.264c-1.183-29.59-9.469-38.172-29.886-38.172v112.444H0V51.861c6.51-.296,12.428-.592,18.05-.592,53.559,0,66.579,19.529,68.946,83.741l.888,23.968c.295,5.622,4.734,10.357,10.356,10.357s10.062-4.734,10.357-10.357l.888-23.968c2.367-64.212,15.388-83.741,68.946-83.741,5.622,0,11.54.295,18.05.592Z"></path>
      <path class="cls-1" d="M26.927,3.113h169.553v28.11H0V3.113h26.927Z"></path>
    </g>
  </g>
</svg>
